<svg xmlns="http://www.w3.org/2000/svg" x="0px" y="0px"
width="48" height="48"
viewBox="0 0 192 192"
style=" fill:#000000;"><g fill="none" fill-rule="nonzero" stroke="none" stroke-width="1" stroke-linecap="butt" stroke-linejoin="miter" stroke-miterlimit="10" stroke-dasharray="" stroke-dashoffset="0" font-family="none" font-weight="none" font-size="none" text-anchor="none" style="mix-blend-mode: normal"><path d="M0,192v-192h192v192z" fill="none"></path><g><g id="surface1"><path d="M174.4375,80.32812h-6.4375v-0.32812h-72v32h45.21875c-6.60938,18.625 -24.32813,32 -45.21875,32c-26.51562,0 -48,-21.48438 -48,-48c0,-26.51562 21.48438,-48 48,-48c12.23438,0 23.375,4.60938 31.84375,12.15625l22.625,-22.625c-14.28125,-13.3125 -33.39063,-21.53125 -54.46875,-21.53125c-44.1875,0 -80,35.8125 -80,80c0,44.1875 35.8125,80 80,80c44.1875,0 80,-35.8125 80,-80c0,-5.35938 -0.54688,-10.59375 -1.5625,-15.67188z" fill="#ffc107"></path><path d="M25.21875,58.76562l26.29687,19.28125c7.10938,-17.60938 24.32813,-30.04688 44.48438,-30.04688c12.23438,0 23.375,4.60938 31.84375,12.15625l22.625,-22.625c-14.28125,-13.3125 -33.39063,-21.53125 -54.46875,-21.53125c-30.73438,0 -57.375,17.34375 -70.78125,42.76562z" fill="#ff3d00"></path><path d="M96,176c20.65625,0 39.4375,-7.90625 53.64062,-20.76562l-24.76562,-20.95312c-8.03125,6.07812 -18.01562,9.71875 -28.875,9.71875c-20.8125,0 -38.46875,-13.26562 -45.125,-31.78125l-26.09375,20.09375c13.23437,25.90625 40.125,43.6875 71.21875,43.6875z" fill="#4caf50"></path><path d="M174.4375,80.32812h-6.4375v-0.32812h-72v32h45.21875c-3.17188,8.95312 -8.9375,16.65625 -16.35938,22.28125c0.01562,0 0.01562,0 0.01562,0l24.76562,20.95312c-1.75,1.57812 26.35938,-19.23438 26.35938,-59.23438c0,-5.35938 -0.54688,-10.59375 -1.5625,-15.67188z" fill="#1976d2"></path></g></g></g></svg>