<svg xmlns="http://www.w3.org/2000/svg" x="0px" y="0px"
width="24" height="24"
viewBox="0 0 192 192"
style=" fill:#000000;"><g fill="none" fill-rule="nonzero" stroke="none" stroke-width="1" stroke-linecap="butt" stroke-linejoin="miter" stroke-miterlimit="10" stroke-dasharray="" stroke-dashoffset="0" font-family="none" font-weight="none" font-size="none" text-anchor="none" style="mix-blend-mode: normal"><path d="M0,192v-192h192v192z" fill="none"></path><g fill="#ffffff"><path d="M159.616,45.376c-15.232,-12.248 -39.328,-14.32 -40.352,-14.408c-1.608,-0.136 -3.136,0.776 -3.792,2.248c-0.048,0.096 -0.576,1.304 -1.16,3.184c10.072,1.696 22.448,5.12 33.648,12.072c1.792,1.112 2.344,3.472 1.232,5.272c-0.72,1.168 -1.976,1.808 -3.256,1.808c-0.688,0 -1.384,-0.184 -2.016,-0.576c-19.248,-11.936 -43.296,-12.536 -47.92,-12.536c-4.624,0 -28.68,0.6 -47.912,12.536c-1.8,1.12 -4.152,0.56 -5.272,-1.232c-1.12,-1.8 -0.56,-4.152 1.232,-5.272c11.2,-6.944 23.568,-10.376 33.648,-12.072c-0.592,-1.888 -1.12,-3.088 -1.16,-3.184c-0.664,-1.472 -2.184,-2.4 -3.8,-2.24c-1.016,0.08 -25.112,2.152 -40.552,14.576c-8.064,7.448 -24.184,51.032 -24.184,88.712c0,0.664 0.176,1.32 0.504,1.896c11.128,19.544 41.48,24.664 48.4,24.888c0.04,0 0.08,0 0.12,0c1.224,0 2.376,-0.584 3.096,-1.576l7,-9.616c-18.872,-4.88 -28.512,-13.16 -29.072,-13.648c-1.584,-1.4 -1.736,-3.816 -0.336,-5.4c1.4,-1.584 3.808,-1.736 5.392,-0.344c0.232,0.208 17.984,15.272 52.896,15.272c34.976,0 52.728,-15.128 52.904,-15.28c1.584,-1.376 4,-1.232 5.392,0.36c1.392,1.584 1.24,3.992 -0.336,5.384c-0.56,0.496 -10.2,8.768 -29.072,13.648l7,9.616c0.72,0.992 1.872,1.576 3.096,1.576c0.04,0 0.08,0 0.12,0c6.92,-0.216 37.272,-5.336 48.4,-24.888c0.32,-0.576 0.496,-1.224 0.496,-1.888c0,-37.68 -16.12,-81.264 -24.384,-88.888zM71.128,118.96c-7.392,0 -13.392,-6.856 -13.392,-15.304c0,-8.448 5.992,-15.304 13.392,-15.304c7.4,0 13.392,6.856 13.392,15.304c0,8.448 -5.992,15.304 -13.392,15.304zM120.872,118.96c-7.392,0 -13.392,-6.856 -13.392,-15.304c0,-8.448 5.992,-15.304 13.392,-15.304c7.392,0 13.392,6.856 13.392,15.304c0,8.448 -6,15.304 -13.392,15.304z"></path></g></g></svg>